<?xml version="1.0" standalone="no"?>
<svg xmlns="http://www.w3.org/2000/svg" version="1.1" xmlns:xlink="http://www.w3.org/1999/xlink" width="512" height="512" x="0" y="0" viewBox="0 0 512 512" style="enable-background:new 0 0 512 512" xml:space="preserve" class=""><g><path d="M476.313 234.277V251.5c0 3.981 3.247 7.227 7.227 7.227H503v13.637c0 8.792-7.172 15.964-15.964 15.964h-8.906a48.34 48.34 0 0 0-6.581-24.421v-18.88c0-10.339-3.616-19.653-10.593-27.284l-32.068-35.075 48.763-.001v-10.27c0-1.755-.408-2.807-1.592-4.101l-52.075-56.958c-1.317-1.441-2.533-1.976-4.486-1.976h-27.856v36.61c-5.432-2.678-11.457-4.068-17.844-4.068h-4.622v-56.63h52.072c7.111 0 13.236 2.697 18.034 7.946l57.315 62.69c4.282 4.683 6.401 10.142 6.401 16.488v54.652h-19.46c-3.978-.001-7.225 3.246-7.225 7.227zM9 387.458v30.169c0 8.717 7.078 15.857 15.771 15.96 0-21.494 13.97-39.729 33.321-46.129zm249.278-180.403v164.403H9V207.055c0-8.781 7.182-15.964 15.963-15.964h217.353c8.78.001 15.962 7.186 15.962 15.964zm-184.6 82.884a7.998 7.998 0 0 0 11.312 0l57.308-57.308a7.998 7.998 0 0 0 0-11.312 7.998 7.998 0 0 0-11.312 0l-57.308 57.308a8 8 0 0 0 0 11.312zm119.918-17.324a7.998 7.998 0 0 0-11.312 0l-57.308 57.308a7.998 7.998 0 0 0 0 11.312 7.998 7.998 0 0 0 11.312 0l57.308-57.308a7.998 7.998 0 0 0 0-11.312zm.776-52.073a7.998 7.998 0 0 0-11.312 0L72.906 330.696a7.998 7.998 0 0 0 0 11.312 7.998 7.998 0 0 0 11.312 0l110.154-110.154a7.998 7.998 0 0 0 0-11.312zm207.327 80.628c4.282 4.683 6.401 10.142 6.401 16.488v54.652h-19.46c-3.981 0-7.228 3.247-7.228 7.228v17.224c0 3.981 3.247 7.227 7.228 7.227h19.46v13.637c0 8.792-7.172 15.964-15.964 15.964h-8.906c0-26.824-21.756-48.58-48.58-48.58s-48.58 21.755-48.58 48.58h-11.793V230.535h52.072c7.111 0 13.235 2.697 18.034 7.946zm-85.789 51.894a8 8 0 0 0-8-8h-10.344a8 8 0 0 0 0 16h10.344a8 8 0 0 0 8-8zm66.842-35.406c0-1.755-.408-2.807-1.592-4.101l-52.075-56.959c-1.317-1.44-2.533-1.976-4.485-1.976h-27.856v73.307l86.009-.001v-10.27zM205.739 433.589h52.54v-46.131h-85.861c19.881 6.575 33.321 25.188 33.321 46.131zM88.616 387.458c11.272 3.729 20.717 11.476 26.638 21.543 5.921-10.067 15.367-17.813 26.639-21.543zm233.112-253.033v7.479h31.45V61.795c0-8.778-7.182-15.964-15.963-15.964H119.863c-8.781 0-15.963 7.183-15.963 15.964v40.667h185.866c17.609 0 31.962 14.354 31.962 31.963zM105.93 433.589c0 17.993-14.586 32.58-32.58 32.58-17.993 0-32.58-14.586-32.58-32.58s14.587-32.58 32.58-32.58c17.994 0 32.58 14.586 32.58 32.58zm-19.999 0c0-6.954-5.626-12.58-12.58-12.58s-12.58 5.626-12.58 12.58 5.626 12.58 12.58 12.58c6.954-.001 12.58-5.626 12.58-12.58zm103.808 0c0 17.993-14.586 32.58-32.58 32.58-17.993 0-32.58-14.586-32.58-32.58s14.586-32.58 32.58-32.58c17.993 0 32.58 14.586 32.58 32.58zm-20 0c0-6.954-5.626-12.58-12.58-12.58s-12.58 5.626-12.58 12.58 5.626 12.58 12.58 12.58c6.954-.001 12.58-5.626 12.58-12.58zM391.834 165.85c-4.799-5.249-10.923-7.946-18.034-7.946h-52.072v56.631h4.622c6.386 0 12.411 1.39 17.843 4.068v-36.61h27.856c1.952 0 3.168.536 4.485 1.976l52.075 56.958c1.184 1.295 1.592 2.347 1.592 4.101v10.27l-48.763.001 32.068 35.075c6.976 7.631 10.593 16.945 10.593 27.284v18.88a48.35 48.35 0 0 1 6.581 24.421h8.906c8.792 0 15.964-7.172 15.964-15.964v-13.637h-19.46c-3.981 0-7.227-3.246-7.227-7.227v-17.224c0-3.981 3.247-7.228 7.227-7.228h19.46v-54.652c0-6.346-2.12-11.805-6.401-16.488zm-24.603 267.739c0 17.993-14.587 32.58-32.58 32.58s-32.58-14.586-32.58-32.58c0-17.993 14.586-32.58 32.58-32.58s32.58 14.587 32.58 32.58zm-20 0c0-6.954-5.627-12.58-12.58-12.58s-12.58 5.626-12.58 12.58 5.626 12.58 12.58 12.58c6.954-.001 12.58-5.626 12.58-12.58zm-41.503-219.055v-80.109c0-8.778-7.182-15.964-15.963-15.964H72.413c-8.781 0-15.963 7.183-15.963 15.964v40.667h185.866c17.61 0 31.962 14.354 31.962 31.963v7.479z" fill="#17a773" opacity="1" data-original="#000000" class=""/></g></svg>